<?xml version="1.0" encoding="UTF-8"?>
<svg width="713px" height="197px" viewBox="0 0 713 197" version="1.1" xmlns="http://www.w3.org/2000/svg" xmlns:xlink="http://www.w3.org/1999/xlink">
    <!-- Generator: Sketch 55.2 (78181) - https://sketchapp.com -->
    <title>アセット 2</title>
    <desc>Created with Sketch.</desc>
    <g id="Symbols" stroke="none" stroke-width="1" fill="none" fill-rule="evenodd">
        <g id="typo/10-(FIX)" transform="translate(-14.000000, -9.000000)" fill="#040000" fill-rule="nonzero">
            <g id="アセット-2" transform="translate(14.000000, 9.000000)">
                <path d="M153.877907,0.225856286 L93.6459884,0.225856286 C93.3686079,0.151120696 93.083366,0.109397536 92.7961919,0.101554085 L65.0638081,0.101554085 C64.7767637,0.110873609 64.491691,0.152572019 64.2140116,0.225856286 L3.60901163,0.225856286 C1.89195192,0.225856286 0.5,1.61715605 0.5,3.33341129 L0.5,29.7890629 C0.5,31.5053182 1.89195192,32.8966179 3.60901163,32.8966179 L61.9547965,32.8966179 L61.9547965,192.935701 C61.9547965,194.651956 63.3467484,196.043256 65.0638081,196.043256 L92.7961919,196.043256 C94.5132516,196.043256 95.9052035,194.651956 95.9052035,192.935701 L95.9052035,32.8966179 L153.877907,32.8966179 C155.594967,32.8966179 156.986919,31.5053182 156.986919,29.7890629 L156.986919,3.33341129 C156.986919,1.61715605 155.594967,0.225856286 153.877907,0.225856286 Z" id="Path"></path>
                <path d="M709.607844,33.8966179 C711.324904,33.8966179 712.716856,32.5053182 712.716856,30.7890629 L712.716856,3.33341129 C712.716856,1.61715605 711.324904,0.225856286 709.607844,0.225856286 L624.047844,0.225856286 C623.769862,0.154060199 623.484955,0.112386007 623.198048,0.101554085 L595.36203,0.101554085 C593.865117,0.107041991 592.584635,1.17796327 592.315199,2.64974919 C592.294934,2.87718645 592.294934,3.10597403 592.315199,3.33341129 L592.315199,28.7890629 C592.315199,28.7890629 592.315199,28.9547992 592.315199,29.0376673 L592.315199,91.6708417 C592.315199,91.6708417 592.315199,91.8365779 592.315199,91.9194461 L592.315199,118.354381 C592.315199,118.354381 592.315199,118.520117 592.315199,118.602985 L592.315199,167.252162 C592.315199,167.252162 592.315199,162.417898 592.315199,162.500766 L592.315199,192.935701 C592.315199,194.651956 593.707151,196.043256 595.424211,196.043256 L709.690751,196.043256 C711.407811,196.043256 712.799763,194.651956 712.799763,192.935701 L712.799763,165.500766 C712.799763,163.784511 711.407811,162.393211 709.690751,162.393211 L626.224152,162.393211 L626.224152,121.461936 L688.404385,121.461936 C690.121445,121.461936 691.513397,120.070636 691.513397,118.354381 L691.513397,90.9194461 C691.513397,89.2031908 690.121445,87.8118911 688.404385,87.8118911 L626.224152,87.8118911 L626.224152,33.8759009 L709.607844,33.8966179 Z" id="Path"></path>
                <path d="M371.832163,1.19955685 L340.742047,37.889423 C340.384168,38.2714928 340.184233,38.7747967 340.182425,39.2981813 L339.83,192.971553 C339.824506,193.79742 340.150274,194.591074 340.734538,195.175064 C341.318801,195.759053 342.112827,196.084669 342.939082,196.079178 L372.267425,196.079178 C373.984484,196.079178 375.376436,194.687808 375.376436,192.971553 L375.376436,2.62903216 C375.364667,1.79490595 374.853517,1.0492072 374.07955,0.737051116 C373.305584,0.424895026 372.419806,0.607185409 371.832163,1.19955685 Z" id="Path"></path>
                <path d="M571.518459,0.225088029 L541.651221,0.225088029 C540.336881,0.22954844 539.16686,1.05896206 538.72875,2.29755962 L483.740697,153.173574 C483.684783,153.343609 483.525957,153.458537 483.346889,153.458537 C483.167821,153.458537 483.008995,153.343609 482.953081,153.173574 L428.379564,2.29755962 C427.946679,1.05502706 426.77342,0.225088029 425.457093,0.225088029 L396.06657,0.225088029 C395.384377,0.227868243 394.74686,0.565285604 394.361783,1.12814387 C393.976707,1.69100213 393.893389,2.40721669 394.138982,3.04337283 L467.117849,194.054421 C467.553383,195.285907 468.712873,196.113726 470.019593,196.126124 L497.088721,196.126124 C498.39544,196.113726 499.554931,195.285907 499.990465,194.054421 L573.508226,3.04337283 C573.758106,2.39686848 573.667995,1.66829485 573.268124,1.10207715 C572.868254,0.535859454 572.2116,0.207011342 571.518459,0.225088029 Z" id="Path"></path>
                <path d="M273.427209,119.390232 C273.059661,117.97452 273.30811,116.469474 274.111192,115.246826 C286.547238,98.051688 317.637355,51.8264041 317.637355,51.8264041 C318.008607,51.2483664 318.176364,50.5630716 318.11407,49.8790029 C317.575174,42.5866072 311.896047,2.25612556 252.22375,0.0601200185 L182.105174,0.0601200185 C180.388115,0.0601200185 178.996163,1.45141979 178.996163,3.16767503 L178.996163,104.971177 L178.996163,121.544804 L178.996163,192.935701 C178.996163,194.651956 180.388115,196.043256 182.105174,196.043256 L209.526657,196.043256 C211.243717,196.043256 212.635669,194.651956 212.635669,192.935701 L212.635669,122.938427 L212.428401,122.50337 C220.843459,122.50337 229.88032,122.379068 238.357558,122.275482 L282.609157,194.841668 C283.003854,195.763643 283.906566,196.365169 284.909826,196.374728 L316.119186,196.374728 C317.694419,196.374728 318.689302,195.110989 317.94314,193.743665 L273.427209,119.390232 Z M211.557878,87.527435 L211.557878,32.7515987 C211.557878,30.4632584 213.413814,28.608192 215.703227,28.608192 L253.405174,28.608192 C270.575772,28.608192 284.495291,42.5211897 284.495291,59.6837421 L284.495291,60.5952916 C284.495291,68.8370399 281.219734,76.7412277 275.389206,82.5690238 C269.558679,88.3968199 261.650786,91.6708417 253.405174,91.6708417 L215.703227,91.6708417 C213.413814,91.6708417 211.557878,89.8157753 211.557878,87.527435 Z" id="Shape"></path>
            </g>
        </g>
    </g>
</svg>