<svg id="レイヤー_1" data-name="レイヤー 1" xmlns="http://www.w3.org/2000/svg" viewBox="0 0 178.25 191.06"><defs><style>.cls-1{fill:#ea5b00;}.cls-1,.cls-2{fill-opacity:0.75;}.cls-1,.cls-2,.cls-3,.cls-4,.cls-5{fill-rule:evenodd;}.cls-2{fill:#ea5100;}.cls-3{fill:#ea4600;fill-opacity:0.8;}.cls-4{fill:#ea2f00;fill-opacity:0.85;}.cls-5{fill:#ea2800;fill-opacity:0.87;}</style></defs><title>symbol-color</title><g id="Symbols"><g id="logo8-copy"><g id="symbol"><path id="Rectangle" class="cls-1" d="M1.7,20.52,160.24,66.34a13.37,13.37,0,0,0,15.74-7,12.1,12.1,0,0,0-4.86-15.81Q108.92,7.91,75,2,39-4.24,1.51,19.2a.73.73,0,0,0-.23,1A.71.71,0,0,0,1.7,20.52Z" transform="translate(0.04 -0.69)"/><path class="cls-2" d="M.74,68.86l29.19-2L165.81,66a11.2,11.2,0,0,0,11.12-11A13.24,13.24,0,0,0,166.36,41.8Q91.12,26.34,59.12,30.52q-33.6,4.4-59,37.16a.73.73,0,0,0,.62,1.18Z" transform="translate(0.04 -0.69)"/><path class="cls-3" d="M7.38,111.93l160.4-45.84a12.67,12.67,0,0,0,9.05-14A12.32,12.32,0,0,0,164,41.55Q98.32,44.76,62.38,57.44,24.11,70.94,6.51,110.93a.73.73,0,0,0,.38,1A.75.75,0,0,0,7.38,111.93Z" transform="translate(0.04 -0.69)"/><path class="cls-4" d="M26.89,150.14,171,64.74a11.75,11.75,0,0,0,4.76-14.87,11.53,11.53,0,0,0-14.19-6.28Q101.43,63.61,70,82.35q-33.42,19.91-44.17,67a.73.73,0,0,0,.55.87A.77.77,0,0,0,26.89,150.14Z" transform="translate(0.04 -0.69)"/><path class="cls-5" d="M61.41,191.5,175.62,61a10.48,10.48,0,0,0,.92-12.57,12.66,12.66,0,0,0-12.11-5.73l-3.15.36c-28.53,21.43-58.32,40.1-77.68,60q-33.16,34.11-23.46,88.07a.73.73,0,0,0,.85.59A.78.78,0,0,0,61.41,191.5Z" transform="translate(0.04 -0.69)"/></g></g></g></svg>